<mxfile host="Electron" modified="2025-06-12T02:01:48.022Z" agent="Mozilla/5.0 (Windows NT 10.0; Win64; x64) AppleWebKit/537.36 (KHTML, like Gecko) draw.io/21.2.1 Chrome/112.0.5615.87 Electron/24.1.2 Safari/537.36" etag="esTxvZX51lRX9g_pUAUU" version="21.2.1" type="device">
  <diagram name="第 1 页" id="1l5mTDWCwm62ek2PJRD-">
    <mxGraphModel dx="523" dy="1563" grid="1" gridSize="10" guides="1" tooltips="1" connect="1" arrows="1" fold="1" page="1" pageScale="1" pageWidth="827" pageHeight="1169" math="0" shadow="0">
      <root>
        <mxCell id="0" />
        <mxCell id="1" parent="0" />
        <mxCell id="qFZtTlaCO94SN207BjeP-27" style="edgeStyle=orthogonalEdgeStyle;rounded=0;orthogonalLoop=1;jettySize=auto;html=1;exitX=0.5;exitY=0;exitDx=0;exitDy=0;entryX=0.5;entryY=1;entryDx=0;entryDy=0;" edge="1" parent="1" source="qFZtTlaCO94SN207BjeP-1" target="qFZtTlaCO94SN207BjeP-26">
          <mxGeometry relative="1" as="geometry" />
        </mxCell>
        <mxCell id="qFZtTlaCO94SN207BjeP-1" value="&lt;font style=&quot;font-size: 18px;&quot;&gt;receive_thread&lt;/font&gt;" style="rounded=1;whiteSpace=wrap;html=1;fillColor=#dae8fc;strokeColor=#6c8ebf;" vertex="1" parent="1">
          <mxGeometry x="90" y="280" width="180" height="60" as="geometry" />
        </mxCell>
        <mxCell id="qFZtTlaCO94SN207BjeP-31" style="edgeStyle=orthogonalEdgeStyle;rounded=0;orthogonalLoop=1;jettySize=auto;html=1;exitX=0.5;exitY=1;exitDx=0;exitDy=0;" edge="1" parent="1" source="qFZtTlaCO94SN207BjeP-2" target="qFZtTlaCO94SN207BjeP-29">
          <mxGeometry relative="1" as="geometry" />
        </mxCell>
        <mxCell id="qFZtTlaCO94SN207BjeP-2" value="&lt;font style=&quot;font-size: 18px;&quot;&gt;send_thread&lt;/font&gt;" style="rounded=1;whiteSpace=wrap;html=1;fillColor=#fff2cc;strokeColor=#d6b656;" vertex="1" parent="1">
          <mxGeometry x="414" y="280" width="186" height="60" as="geometry" />
        </mxCell>
        <mxCell id="qFZtTlaCO94SN207BjeP-11" style="edgeStyle=orthogonalEdgeStyle;rounded=0;orthogonalLoop=1;jettySize=auto;html=1;exitX=0.5;exitY=1;exitDx=0;exitDy=0;entryX=0.5;entryY=0;entryDx=0;entryDy=0;" edge="1" parent="1" source="qFZtTlaCO94SN207BjeP-4" target="qFZtTlaCO94SN207BjeP-2">
          <mxGeometry relative="1" as="geometry" />
        </mxCell>
        <mxCell id="qFZtTlaCO94SN207BjeP-21" value="pop queue" style="edgeLabel;html=1;align=center;verticalAlign=middle;resizable=0;points=[];" vertex="1" connectable="0" parent="qFZtTlaCO94SN207BjeP-11">
          <mxGeometry x="-0.2621" y="-2" relative="1" as="geometry">
            <mxPoint as="offset" />
          </mxGeometry>
        </mxCell>
        <mxCell id="qFZtTlaCO94SN207BjeP-4" value="uart_msg" style="rounded=0;whiteSpace=wrap;html=1;fillColor=#0050ef;fontColor=#ffffff;strokeColor=#001DBC;" vertex="1" parent="1">
          <mxGeometry x="510" y="220" width="120" height="20" as="geometry" />
        </mxCell>
        <mxCell id="qFZtTlaCO94SN207BjeP-5" value="uart_msg" style="rounded=0;whiteSpace=wrap;html=1;fillColor=#0050ef;fontColor=#ffffff;strokeColor=#001DBC;" vertex="1" parent="1">
          <mxGeometry x="510" y="120" width="120" height="20" as="geometry" />
        </mxCell>
        <mxCell id="qFZtTlaCO94SN207BjeP-6" value="uart_msg" style="rounded=0;whiteSpace=wrap;html=1;fillColor=#0050ef;fontColor=#ffffff;strokeColor=#001DBC;" vertex="1" parent="1">
          <mxGeometry x="510" y="160" width="120" height="20" as="geometry" />
        </mxCell>
        <mxCell id="qFZtTlaCO94SN207BjeP-7" value="uart_msg" style="rounded=0;whiteSpace=wrap;html=1;fillColor=#0050ef;fontColor=#ffffff;strokeColor=#001DBC;" vertex="1" parent="1">
          <mxGeometry x="510" y="180" width="120" height="20" as="geometry" />
        </mxCell>
        <mxCell id="qFZtTlaCO94SN207BjeP-8" value="uart_msg" style="rounded=0;whiteSpace=wrap;html=1;fillColor=#0050ef;fontColor=#ffffff;strokeColor=#001DBC;" vertex="1" parent="1">
          <mxGeometry x="510" y="200" width="120" height="20" as="geometry" />
        </mxCell>
        <mxCell id="qFZtTlaCO94SN207BjeP-10" value="" style="endArrow=none;dashed=1;html=1;dashPattern=1 3;strokeWidth=2;rounded=0;entryX=0.5;entryY=1;entryDx=0;entryDy=0;exitX=0.5;exitY=0;exitDx=0;exitDy=0;" edge="1" parent="1" source="qFZtTlaCO94SN207BjeP-6" target="qFZtTlaCO94SN207BjeP-5">
          <mxGeometry width="50" height="50" relative="1" as="geometry">
            <mxPoint x="410" y="180" as="sourcePoint" />
            <mxPoint x="460" y="130" as="targetPoint" />
          </mxGeometry>
        </mxCell>
        <mxCell id="qFZtTlaCO94SN207BjeP-17" style="edgeStyle=orthogonalEdgeStyle;rounded=0;orthogonalLoop=1;jettySize=auto;html=1;exitX=0;exitY=0.5;exitDx=0;exitDy=0;" edge="1" parent="1" source="qFZtTlaCO94SN207BjeP-12">
          <mxGeometry relative="1" as="geometry">
            <mxPoint x="570" y="120" as="targetPoint" />
          </mxGeometry>
        </mxCell>
        <mxCell id="qFZtTlaCO94SN207BjeP-20" value="add to queue" style="edgeLabel;html=1;align=center;verticalAlign=middle;resizable=0;points=[];" vertex="1" connectable="0" parent="qFZtTlaCO94SN207BjeP-17">
          <mxGeometry x="-0.7639" y="1" relative="1" as="geometry">
            <mxPoint x="-16" as="offset" />
          </mxGeometry>
        </mxCell>
        <mxCell id="qFZtTlaCO94SN207BjeP-12" value="&lt;font style=&quot;font-size: 14px;&quot;&gt;thread1&lt;/font&gt;" style="rounded=1;whiteSpace=wrap;html=1;fillColor=#60a917;fontColor=#ffffff;strokeColor=#2D7600;" vertex="1" parent="1">
          <mxGeometry x="700" y="-80" width="120" height="50" as="geometry" />
        </mxCell>
        <mxCell id="qFZtTlaCO94SN207BjeP-15" style="edgeStyle=orthogonalEdgeStyle;rounded=0;orthogonalLoop=1;jettySize=auto;html=1;exitX=0;exitY=0.5;exitDx=0;exitDy=0;entryX=0.5;entryY=0;entryDx=0;entryDy=0;" edge="1" parent="1" source="qFZtTlaCO94SN207BjeP-13" target="qFZtTlaCO94SN207BjeP-5">
          <mxGeometry relative="1" as="geometry" />
        </mxCell>
        <mxCell id="qFZtTlaCO94SN207BjeP-19" value="add to queue" style="edgeLabel;html=1;align=center;verticalAlign=middle;resizable=0;points=[];" vertex="1" connectable="0" parent="qFZtTlaCO94SN207BjeP-15">
          <mxGeometry x="-0.1149" relative="1" as="geometry">
            <mxPoint x="54" as="offset" />
          </mxGeometry>
        </mxCell>
        <mxCell id="qFZtTlaCO94SN207BjeP-13" value="&lt;font style=&quot;font-size: 14px;&quot;&gt;thread2&lt;/font&gt;" style="rounded=1;whiteSpace=wrap;html=1;fillColor=#e3c800;fontColor=#000000;strokeColor=#B09500;" vertex="1" parent="1">
          <mxGeometry x="700" y="-10" width="120" height="50" as="geometry" />
        </mxCell>
        <mxCell id="qFZtTlaCO94SN207BjeP-16" style="edgeStyle=orthogonalEdgeStyle;rounded=0;orthogonalLoop=1;jettySize=auto;html=1;exitX=0;exitY=0.5;exitDx=0;exitDy=0;" edge="1" parent="1" source="qFZtTlaCO94SN207BjeP-14">
          <mxGeometry relative="1" as="geometry">
            <mxPoint x="570" y="120" as="targetPoint" />
          </mxGeometry>
        </mxCell>
        <mxCell id="qFZtTlaCO94SN207BjeP-18" value="add to queue" style="edgeLabel;html=1;align=center;verticalAlign=middle;resizable=0;points=[];" vertex="1" connectable="0" parent="qFZtTlaCO94SN207BjeP-16">
          <mxGeometry x="-0.4061" y="-2" relative="1" as="geometry">
            <mxPoint as="offset" />
          </mxGeometry>
        </mxCell>
        <mxCell id="qFZtTlaCO94SN207BjeP-14" value="&lt;font style=&quot;font-size: 14px;&quot;&gt;thread3&lt;/font&gt;" style="rounded=1;whiteSpace=wrap;html=1;fillColor=#f0a30a;fontColor=#000000;strokeColor=#BD7000;" vertex="1" parent="1">
          <mxGeometry x="700" y="60" width="120" height="50" as="geometry" />
        </mxCell>
        <mxCell id="qFZtTlaCO94SN207BjeP-25" style="edgeStyle=orthogonalEdgeStyle;rounded=0;orthogonalLoop=1;jettySize=auto;html=1;exitX=0;exitY=0.5;exitDx=0;exitDy=0;entryX=1;entryY=0.5;entryDx=0;entryDy=0;" edge="1" parent="1" source="qFZtTlaCO94SN207BjeP-22" target="qFZtTlaCO94SN207BjeP-4">
          <mxGeometry relative="1" as="geometry" />
        </mxCell>
        <mxCell id="qFZtTlaCO94SN207BjeP-22" value="Q_head" style="text;html=1;strokeColor=none;fillColor=none;align=center;verticalAlign=middle;whiteSpace=wrap;rounded=0;" vertex="1" parent="1">
          <mxGeometry x="680" y="215" width="60" height="30" as="geometry" />
        </mxCell>
        <mxCell id="qFZtTlaCO94SN207BjeP-24" style="edgeStyle=orthogonalEdgeStyle;rounded=0;orthogonalLoop=1;jettySize=auto;html=1;entryX=1;entryY=0.5;entryDx=0;entryDy=0;" edge="1" parent="1" source="qFZtTlaCO94SN207BjeP-23" target="qFZtTlaCO94SN207BjeP-5">
          <mxGeometry relative="1" as="geometry" />
        </mxCell>
        <mxCell id="qFZtTlaCO94SN207BjeP-23" value="Q_tail" style="text;html=1;strokeColor=none;fillColor=none;align=center;verticalAlign=middle;whiteSpace=wrap;rounded=0;" vertex="1" parent="1">
          <mxGeometry x="680" y="115" width="60" height="30" as="geometry" />
        </mxCell>
        <mxCell id="qFZtTlaCO94SN207BjeP-28" style="edgeStyle=orthogonalEdgeStyle;rounded=0;orthogonalLoop=1;jettySize=auto;html=1;exitX=0.5;exitY=0;exitDx=0;exitDy=0;entryX=1;entryY=0.5;entryDx=0;entryDy=0;" edge="1" parent="1" source="qFZtTlaCO94SN207BjeP-26" target="qFZtTlaCO94SN207BjeP-1">
          <mxGeometry relative="1" as="geometry" />
        </mxCell>
        <mxCell id="qFZtTlaCO94SN207BjeP-26" value="uart_msg" style="rounded=0;whiteSpace=wrap;html=1;fillColor=#d80073;fontColor=#ffffff;strokeColor=#A50040;" vertex="1" parent="1">
          <mxGeometry x="120" y="210" width="120" height="20" as="geometry" />
        </mxCell>
        <mxCell id="qFZtTlaCO94SN207BjeP-30" style="edgeStyle=orthogonalEdgeStyle;rounded=0;orthogonalLoop=1;jettySize=auto;html=1;exitX=0;exitY=0.5;exitDx=0;exitDy=0;entryX=0.5;entryY=1;entryDx=0;entryDy=0;" edge="1" parent="1" source="qFZtTlaCO94SN207BjeP-29" target="qFZtTlaCO94SN207BjeP-1">
          <mxGeometry relative="1" as="geometry" />
        </mxCell>
        <mxCell id="qFZtTlaCO94SN207BjeP-29" value="/dev/ttyS1" style="text;strokeColor=none;fillColor=none;align=left;verticalAlign=middle;spacingLeft=4;spacingRight=4;overflow=hidden;points=[[0,0.5],[1,0.5]];portConstraint=eastwest;rotatable=0;whiteSpace=wrap;html=1;" vertex="1" parent="1">
          <mxGeometry x="320" y="420" width="80" height="30" as="geometry" />
        </mxCell>
      </root>
    </mxGraphModel>
  </diagram>
</mxfile>
